<svg width="256" height="256" viewBox="0 0 256 256" fill="none" xmlns="http://www.w3.org/2000/svg">
<rect x="72.9088" y="48.7422" width="124.518" height="163.021" fill="white"/>
<mask id="path-2-inside-1_305:12" fill="white">
<path fill-rule="evenodd" clip-rule="evenodd" d="M128 256C198.692 256 256 198.692 256 128C256 57.3076 198.692 0 128 0C57.3076 0 0 57.3076 0 128C0 198.692 57.3076 256 128 256ZM134.212 54.6133C163.922 54.6133 180.743 71.8711 180.743 98.0855C180.743 118.402 170.476 133.693 152.125 139.155L194.505 207.531H162.83L121.76 141.558H106.906L152.344 98.0855L106.36 54.6133H134.212ZM106.36 54.6133V80.8277H78.5067V54.6133H106.36ZM106.906 141.558V207.531H78.5067V115.343H106.906V141.558Z"/>
</mask>
<path fill-rule="evenodd" clip-rule="evenodd" d="M128 256C198.692 256 256 198.692 256 128C256 57.3076 198.692 0 128 0C57.3076 0 0 57.3076 0 128C0 198.692 57.3076 256 128 256ZM134.212 54.6133C163.922 54.6133 180.743 71.8711 180.743 98.0855C180.743 118.402 170.476 133.693 152.125 139.155L194.505 207.531H162.83L121.76 141.558H106.906L152.344 98.0855L106.36 54.6133H134.212ZM106.36 54.6133V80.8277H78.5067V54.6133H106.36ZM106.906 141.558V207.531H78.5067V115.343H106.906V141.558Z" fill="#B05CD6"/>
<path d="M152.125 139.155L146.283 119.526L120.602 127.169L134.718 149.944L152.125 139.155ZM194.505 207.531V228.011H231.294L211.913 196.741L194.505 207.531ZM162.83 207.531L145.443 218.354L151.455 228.011H162.83V207.531ZM121.76 141.558L139.147 130.734L133.135 121.078H121.76V141.558ZM152.344 98.0855L166.502 112.884L182.062 97.9968L166.413 83.2031L152.344 98.0855ZM106.36 80.8277V101.308H126.84V80.8277H106.36ZM78.5067 80.8277H58.0267V101.308H78.5067V80.8277ZM78.5067 54.6133V34.1333H58.0267V54.6133H78.5067ZM106.906 207.531V228.011H127.386V207.531H106.906ZM78.5067 207.531H58.0267V228.011H78.5067V207.531ZM78.5067 115.343V94.8633H58.0267V115.343H78.5067ZM106.906 115.343H127.386V94.8633H106.906V115.343ZM235.52 128C235.52 187.382 187.382 235.52 128 235.52V276.48C210.003 276.48 276.48 210.003 276.48 128H235.52ZM128 20.48C187.382 20.48 235.52 68.6183 235.52 128H276.48C276.48 45.9968 210.003 -20.48 128 -20.48V20.48ZM20.48 128C20.48 68.6183 68.6183 20.48 128 20.48V-20.48C45.9968 -20.48 -20.48 45.9968 -20.48 128H20.48ZM128 235.52C68.6183 235.52 20.48 187.382 20.48 128H-20.48C-20.48 210.003 45.9968 276.48 128 276.48V235.52ZM201.223 98.0855C201.223 80.5075 195.477 63.8953 182.791 51.7348C170.187 39.6525 153.003 34.1333 134.212 34.1333V75.0933C145.131 75.0933 151.212 78.203 154.446 81.3032C157.599 84.3252 160.263 89.4491 160.263 98.0855H201.223ZM157.967 158.784C186.174 150.389 201.223 126.177 201.223 98.0855H160.263C160.263 110.626 154.777 116.998 146.283 119.526L157.967 158.784ZM211.913 196.741L169.533 128.365L134.718 149.944L177.098 218.32L211.913 196.741ZM162.83 228.011H194.505V187.051H162.83V228.011ZM104.374 152.381L145.443 218.354L180.216 196.707L139.147 130.734L104.374 152.381ZM106.906 162.038H121.76V121.078H106.906V162.038ZM138.186 83.2873L92.7478 126.76L121.063 156.356L166.502 112.884L138.186 83.2873ZM92.2902 69.4956L138.275 112.968L166.413 83.2031L120.429 39.7309L92.2902 69.4956ZM134.212 34.1333H106.36V75.0933H134.212V34.1333ZM126.84 80.8277V54.6133H85.8795V80.8277H126.84ZM78.5067 101.308H106.36V60.3477H78.5067V101.308ZM58.0267 54.6133V80.8277H98.9867V54.6133H58.0267ZM106.36 34.1333H78.5067V75.0933H106.36V34.1333ZM127.386 207.531V141.558H86.4257V207.531H127.386ZM78.5067 228.011H106.906V187.051H78.5067V228.011ZM58.0267 115.343V207.531H98.9867V115.343H58.0267ZM106.906 94.8633H78.5067V135.823H106.906V94.8633ZM127.386 141.558V115.343H86.4257V141.558H127.386Z" fill="black" mask="url(#path-2-inside-1_305:12)"/>
</svg>
