<svg width="2500" height="2500" viewBox="0 0 2500 2500" fill="none" xmlns="http://www.w3.org/2000/svg">
<path fill-rule="evenodd" clip-rule="evenodd" d="M1639.53 1640.45C1392.31 1659.3 1139.79 1578.87 978.033 1390.96C809.272 1194.92 758.031 927.417 807.105 673.439C858.478 407.57 984.395 123.038 1240.19 34.1993C1479.54 -48.9268 1690.8 173.151 1916.59 288.117C2131.41 397.495 2426.33 436.751 2488.32 669.705C2551.28 906.336 2346.71 1114.52 2185.54 1298.86C2036.86 1468.89 1864.75 1623.27 1639.53 1640.45Z" fill="#56CCF2" fill-opacity="0.95"/>
<path fill-rule="evenodd" clip-rule="evenodd" d="M1741.36 701.083C1556.15 456.668 1206.68 447.039 900.36 461.618C616.604 475.124 329.342 553.054 154.088 776.629C-19.6166 998.227 -23.8091 1293.99 31.4682 1570.08C89.1528 1858.19 206.443 2138.75 457.406 2291.57C740.451 2463.92 1108.25 2565.34 1395.99 2400.96C1618.9 2273.61 1661.21 2006.56 1702.72 1744.57C1712.5 1682.83 1722.23 1621.38 1734.28 1562.1C1744.87 1509.96 1757.61 1456.93 1770.42 1403.63C1830.3 1154.45 1891.61 899.348 1741.36 701.083ZM804.392 1576.83C810.797 1582.94 820.113 1586 832.34 1586C843.985 1586 855.048 1583.09 865.528 1577.26C876.009 1571.44 884.451 1562.85 890.856 1551.5C897.552 1540.15 900.9 1526.61 900.9 1510.89V1358.05L1005.27 1329.23V1491.24C999.446 1488.03 992.75 1486.43 985.181 1486.43C976.447 1486.43 968.15 1488.76 960.289 1493.42C952.429 1497.79 945.879 1503.76 940.638 1511.32C935.689 1518.6 933.215 1526.75 933.215 1535.78C933.215 1545.39 936.417 1553.25 942.822 1559.36C949.227 1565.47 958.543 1568.53 970.77 1568.53C982.415 1568.53 993.478 1565.62 1003.96 1559.8C1014.44 1553.97 1022.88 1545.39 1029.29 1534.03C1035.98 1522.68 1039.33 1509.14 1039.33 1493.42V1279.01L867.275 1322.68V1508.7C861.452 1505.5 854.611 1503.9 846.751 1503.9C838.017 1503.9 829.72 1506.23 821.859 1510.89C813.999 1515.25 807.594 1521.22 802.645 1528.79C797.696 1536.07 795.221 1544.22 795.221 1553.25C795.221 1562.85 798.278 1570.71 804.392 1576.83Z" fill="#B05CD6" fill-opacity="0.95"/>
</svg>
