<svg width="2500" height="2469" viewBox="0 0 2500 2469" fill="none" xmlns="http://www.w3.org/2000/svg">
<path fill-rule="evenodd" clip-rule="evenodd" d="M1639.53 1624.45C1392.31 1643.3 1139.79 1562.87 978.033 1374.96C809.272 1178.92 758.03 911.417 807.105 657.439C858.478 391.57 984.395 107.038 1240.19 18.1994C1479.54 -64.9268 1690.8 157.151 1916.59 272.117C2131.41 381.495 2426.33 420.751 2488.32 653.705C2551.28 890.336 2346.71 1098.52 2185.54 1282.86C2036.86 1452.89 1864.75 1607.27 1639.53 1624.45Z" fill="#56CCF2"/>
<path fill-rule="evenodd" clip-rule="evenodd" d="M1741.36 685.083C1556.15 440.668 1206.68 431.039 900.36 445.618C616.604 459.124 329.342 537.054 154.088 760.629C-19.6166 982.227 -23.8092 1277.99 31.4682 1554.08C89.1528 1842.19 206.443 2122.75 457.406 2275.57C740.451 2447.92 1108.25 2549.34 1395.99 2384.96C1618.9 2257.61 1661.21 1990.56 1702.72 1728.57C1712.5 1666.83 1722.23 1605.38 1734.28 1546.1C1744.87 1493.96 1757.61 1440.93 1770.42 1387.63C1830.3 1138.45 1891.61 883.348 1741.36 685.083ZM804.392 1560.83C810.797 1566.94 820.113 1570 832.34 1570C843.985 1570 855.048 1567.09 865.528 1561.26C876.009 1555.44 884.451 1546.85 890.856 1535.5C897.552 1524.15 900.9 1510.61 900.9 1494.89V1342.05L1005.27 1313.23V1475.24C999.446 1472.03 992.75 1470.43 985.181 1470.43C976.447 1470.43 968.15 1472.76 960.289 1477.42C952.429 1481.79 945.879 1487.76 940.638 1495.32C935.689 1502.6 933.215 1510.75 933.215 1519.78C933.215 1529.39 936.417 1537.25 942.822 1543.36C949.227 1549.47 958.543 1552.53 970.77 1552.53C982.415 1552.53 993.478 1549.62 1003.96 1543.8C1014.44 1537.97 1022.88 1529.39 1029.29 1518.03C1035.98 1506.68 1039.33 1493.14 1039.33 1477.42V1263.01L867.275 1306.68V1492.7C861.452 1489.5 854.611 1487.9 846.751 1487.9C838.017 1487.9 829.72 1490.23 821.859 1494.89C813.999 1499.25 807.594 1505.22 802.645 1512.79C797.696 1520.07 795.222 1528.22 795.222 1537.25C795.222 1546.85 798.278 1554.71 804.392 1560.83Z" fill="#BB6BD9" fill-opacity="0.95"/>
</svg>
