<svg width="2500" height="2500" viewBox="0 0 2500 2500" fill="none" xmlns="http://www.w3.org/2000/svg">
<g clip-path="url(#clip0)">
<path fill-rule="evenodd" clip-rule="evenodd" d="M1343.5 922.252C1092.14 916.601 821.442 1005.66 678.516 1212.52C547.522 1402.1 647.384 1649.91 683.471 1877.5C711.385 2053.56 730.843 2238.19 860.532 2360.48C987.267 2479.98 1169.33 2497.62 1343.5 2499.88C1520.77 2502.18 1692.1 2472.17 1839.18 2373.18C2027.64 2246.34 2240.31 2102.95 2268.22 1877.5C2297.95 1637.35 2147.56 1415.63 1979.25 1241.76C1807.76 1064.61 1590 927.794 1343.5 922.252Z" fill="#F26255" fill-opacity="0.95"/>
<path fill-rule="evenodd" clip-rule="evenodd" d="M765.286 256.185C924.481 93.3211 1144.17 -15.3 1371.27 1.76018C1586.17 17.9031 1771.61 162.52 1892.58 340.868C1994.7 491.431 1976.19 681.502 1954.84 862.173C1936.72 1015.6 1870.15 1146.16 1782.42 1273.32C1756.3 1311.18 1731.64 1352.27 1706.84 1393.6C1619.87 1538.55 1531.16 1686.42 1371.27 1707.99C1163.96 1735.96 992.87 1563.69 844.146 1413.93C840.037 1409.8 835.945 1405.67 831.87 1401.58C680.871 1249.72 542.673 1075.97 530.245 862.173C517.174 637.322 607.849 417.251 765.286 256.185ZM1411.1 889.224L1391.46 854.674L1346.73 880.495C1337.51 869.343 1326.6 860.008 1314 852.492C1301.15 844.976 1287.21 840.006 1272.17 837.581V785.939H1232.53V837.945C1217.74 840.37 1204.05 845.219 1191.44 852.492C1178.59 860.008 1167.56 869.343 1158.34 880.495L1113.25 854.674L1093.61 889.224L1138.34 915.045C1133.25 928.865 1130.7 943.169 1130.7 957.959C1130.7 972.748 1133.25 987.053 1138.34 1000.87L1093.61 1026.69L1113.25 1061.24L1158.34 1035.42C1167.56 1046.57 1178.59 1055.79 1191.44 1063.06C1204.05 1070.58 1217.74 1075.55 1232.53 1077.97V1129.98H1272.17V1078.34C1286.96 1075.91 1300.78 1070.94 1313.63 1063.43C1326.48 1055.91 1337.51 1046.57 1346.73 1035.42L1391.46 1061.24L1411.1 1026.69L1366.73 1000.87C1371.82 987.053 1374.37 972.748 1374.37 957.959C1374.37 943.169 1371.82 928.865 1366.73 915.045L1411.1 889.224ZM1272.17 992.508L1313.27 1016.15C1301.87 1028.03 1288.18 1035.91 1272.17 1039.79V992.508ZM1232.53 992.508V1039.42C1216.77 1035.54 1203.2 1027.78 1191.8 1016.15L1232.53 992.508ZM1333.27 934.32C1335.45 942.078 1336.55 949.958 1336.55 957.959C1336.55 965.96 1335.45 973.839 1333.27 981.598L1292.18 957.959L1333.27 934.32ZM1171.8 981.598C1169.62 973.839 1168.53 965.96 1168.53 957.959C1168.53 949.958 1169.62 942.078 1171.8 934.32L1212.53 957.959L1171.8 981.598ZM1272.17 876.131C1288.18 880.01 1301.87 887.89 1313.27 899.77L1272.17 923.409V876.131ZM1232.53 876.495V923.409L1191.8 899.77C1203.2 888.133 1216.77 880.374 1232.53 876.495Z" fill="#F2E124" fill-opacity="0.95"/>
</g>
<defs>
<clipPath id="clip0">
<rect width="2500" height="2500" fill="white"/>
</clipPath>
</defs>
</svg>
