<svg width="2000" height="2000" viewBox="0 0 2000 2000" fill="none" xmlns="http://www.w3.org/2000/svg">
<path d="M793.538 959.331C728.363 959.331 676.909 1016.5 676.909 1086.25C676.909 1156 729.507 1213.17 793.538 1213.17C858.713 1213.17 910.167 1156 910.167 1086.25C911.31 1016.5 858.713 959.331 793.538 959.331ZM1210.89 959.331C1145.71 959.331 1094.26 1016.5 1094.26 1086.25C1094.26 1156 1146.86 1213.17 1210.89 1213.17C1276.06 1213.17 1327.52 1156 1327.52 1086.25C1327.52 1016.5 1276.06 959.331 1210.89 959.331Z" fill="#7289DA"/>
<path d="M2000 1000C2000 447.715 1552.29 0 1000 0V0C447.716 0 0.00146718 447.715 0.000945178 999.999V999.999C0.000423171 1552.28 447.716 2000 1000 2000V2000C1552.29 2000 2000 1552.28 2000 1000V1000ZM1324.57 1480.73C1324.57 1480.73 1283.43 1431.97 1249.14 1388.89C1398.86 1346.94 1456 1253.97 1456 1253.97C1409.14 1284.58 1364.57 1306.12 1324.57 1320.86C1267.43 1344.67 1212.57 1360.54 1158.86 1369.61C1049.14 1390.02 948.572 1384.35 862.857 1368.48C797.715 1356.01 741.715 1337.87 694.858 1319.73C668.572 1309.52 640 1297.05 611.429 1281.18C608 1278.91 604.572 1277.78 601.143 1275.51C598.857 1274.38 597.715 1273.24 596.572 1272.11C576 1260.77 564.572 1252.83 564.572 1252.83C564.572 1252.83 619.429 1343.54 764.572 1386.62C730.286 1429.71 688 1480.73 688 1480.73C435.429 1472.79 339.429 1308.39 339.429 1308.39C339.429 943.311 504 647.392 504 647.392C668.572 524.943 825.143 528.345 825.143 528.345L836.572 541.95C630.857 600.907 536 690.476 536 690.476C536 690.476 561.143 676.871 603.429 657.596C725.715 604.308 822.857 589.569 862.857 586.168C869.715 585.034 875.429 583.9 882.286 583.9C952 574.83 1030.86 572.562 1113.14 581.633C1221.71 594.104 1338.29 625.85 1457.14 690.476C1457.14 690.476 1366.86 605.442 1172.57 546.485L1188.57 528.345C1188.57 528.345 1345.14 524.943 1509.71 647.392C1509.71 647.392 1674.29 943.311 1674.29 1308.39C1674.29 1308.39 1577.14 1472.79 1324.57 1480.73Z" fill="#7289DA"/>
</svg>
