<svg width="1092" height="887" viewBox="0 0 1092 887" fill="none" xmlns="http://www.w3.org/2000/svg">
<path d="M282.513 848.706C282.513 841.011 279.737 813.3 266.054 812.496C254.798 811.833 248.01 822.126 240.451 829.686C225.39 844.747 203.372 855.289 182.112 855.289C171.58 855.289 158.134 858.581 145.902 858.581C130.047 858.581 122.981 854.442 109.692 847.06C101.499 842.508 90.5821 825.663 106.4 825.663C117.627 825.663 137.306 829.484 147.548 824.931C160.332 819.25 175.774 819.079 150.84 819.079C137.425 819.079 123.493 821.133 111.338 815.056C95.9159 807.345 94.8791 804.083 94.8791 786.161C94.8791 772.355 102.386 762.695 113.167 756.535C124.803 749.885 139.246 749.951 152.486 749.951C169.085 749.951 150.84 749.857 150.84 735.138C150.84 718.299 171.417 733.915 173.7 741.904C175.539 748.342 182.518 772.771 176.443 778.846C172.111 783.178 144.177 780.173 140.233 777.017C138.9 775.951 102.275 772.994 111.338 772.994C121.696 772.994 173.639 782.839 176.992 794.574C180.331 806.26 180.466 817.489 180.466 830.601C180.466 838.692 188.08 835.373 191.988 832.247C195.619 829.342 193.634 818.499 193.634 814.142C193.634 801.258 172.85 752.447 181.198 744.099C185.875 739.422 209.895 737.16 216.676 736.784C230.317 736.026 237.91 745.199 249.595 746.659C251.52 746.9 278.122 765.037 271.906 757.266C265.652 749.449 253.927 733.084 244.474 730.383C233.37 727.21 224.079 723.616 211.739 723.616C193.334 723.616 215.038 706.401 220.7 701.305C232.735 690.473 244.218 690.698 259.47 690.698C267.485 690.698 299.236 704.382 281.05 693.99C269.961 687.654 262.75 674.128 251.423 667.656C239.392 660.78 256.803 643.009 259.47 639.675C266.858 630.441 274.929 624.028 280.867 613.341C285.19 605.559 295.164 590.834 295.68 582.068C298.285 537.788 356.149 513.298 392.606 502.882C403.954 499.639 416.862 502.287 428.999 499.59C441.958 496.71 452.247 489.669 465.209 486.788C473.251 485.001 475.752 480.977 473.621 488.434C471.671 495.261 468.727 501.67 465.209 508.002C460.418 516.626 461.871 540.647 466.123 549.15C479.729 576.362 493.285 605.231 512.209 628.885C523.627 643.158 539.275 676.248 539.275 695.27C539.275 701.378 544.408 684.147 547.687 678.994C551.855 672.445 559.768 662.963 562.317 655.951C566.599 644.178 578.776 629.145 578.776 616.632C578.776 608.272 586.179 584.544 590.298 577.131C596.055 566.768 594.343 550.335 599.259 539.275C604.675 527.088 601.819 509.768 601.819 496.481C601.819 491.765 600.192 460.069 599.259 461.003C593.361 466.9 584.029 474.775 579.508 483.314C574.332 493.09 559.695 498.936 552.442 508.002C546.197 515.808 538.176 520.403 531.045 526.107C516.106 538.059 511.92 526.063 498.127 522.998C488.573 520.875 462.005 510.014 471.792 510.014C480.037 510.014 493.441 528.382 499.041 533.423C516.157 548.827 542.09 537.577 560.671 552.442C570.689 560.456 574.052 571.444 578.959 554.271C581.626 544.937 579.677 528.273 586.092 520.255C592.912 511.73 596.601 503.528 604.379 495.749C610.437 489.692 632.638 492.707 641.321 493.189C653.792 493.882 665.075 497.371 671.679 505.625C678.453 514.093 691.452 513.882 697.282 521.17C710.512 537.707 744.527 535.787 756.535 550.796C763.094 558.995 770.966 564.347 776.286 573.656C778.525 577.575 783.339 580.187 786.161 583.714C789.81 588.276 790.568 594.161 793.476 597.796C802.655 609.269 802.62 616.797 802.62 631.446C802.62 642.881 811.646 650.134 818.348 658.512C819.985 660.558 838.83 675.628 838.83 670.947C838.83 666.317 828.662 654.214 835.538 658.512C839.499 660.987 845.612 665.434 848.706 669.302C855.095 677.288 907.958 709.962 907.958 705.512C907.958 692.771 909.221 682.401 901.375 672.593C894.839 664.424 923.888 667.656 931.001 667.656C940.634 667.656 966.398 662.896 967.211 677.531C967.953 690.886 947.551 690.698 937.585 690.698C932.32 690.698 925.954 689.953 921.857 686.675C916.891 682.702 916.493 690.698 924.417 690.698C936.599 690.698 953.709 693.851 965.382 690.515C974.341 687.956 990.254 676.674 990.254 695.636C990.254 713.067 980.338 710.449 965.565 710.449C953.309 710.449 938.356 720.325 958.981 720.325C970.927 720.325 986.962 710.111 986.962 726.908C986.962 744.586 916.415 743.367 967.211 743.367C983.894 743.367 987.995 745.561 986.962 763.118C986.599 769.296 954.99 766.41 949.106 766.41C935.486 766.41 923.492 769.702 909.604 769.702C892.493 769.702 898.083 754.27 898.083 740.076C898.083 736.69 901.375 723.351 901.375 726.908C901.375 733.453 901.759 740.127 901.375 746.659C900.349 764.097 897.708 761.365 916.005 766.593C926.741 769.661 933.342 776.286 945.814 776.286C959.08 776.286 960.927 786.4 968.857 792.745C973.693 796.614 982.864 819.554 969.04 815.605C964.715 814.369 969.985 840.811 964.651 846.145C959.702 851.094 931.577 851.6 924.417 851.997C911.485 852.716 900.389 861.196 888.207 861.873C875.592 862.574 861.348 864.509 854.558 856.021C850.483 850.927 847.995 849.31 842.853 844.682C837.118 839.52 841.767 832.257 837.001 827.492C828.354 818.845 816.376 815.787 804.266 815.787C793.013 815.787 784.689 809.018 774.457 806.095C765.061 803.41 751.783 796.956 746.659 787.99C744.89 784.894 723.708 765.701 732.76 777.017C747.321 795.218 766.219 811.006 772.811 834.075C778.267 853.173 755.42 837.302 748.305 835.721C734.241 832.596 720.868 838.83 707.157 838.83C701.192 838.83 672.286 845.414 687.406 845.414C697.716 845.414 713.134 833.304 713.741 822.371C714.015 817.443 717.741 809.764 713.741 811.764C709.509 813.88 706.443 818.33 703.134 821.64C695.333 829.441 680.26 832.95 674.239 840.476C668.665 847.444 653.479 846.676 647.905 853.643C638.859 864.95 621.891 851.083 633.091 842.122C641.496 835.399 635.508 803.268 631.628 820.725C629.137 831.938 622.248 839.981 614.255 847.974C605.148 857.081 598.297 858.581 585.36 858.581C573.681 858.581 561.832 868.457 549.15 868.457C534.225 868.457 523.635 868.896 507.819 868.457C491.962 868.016 475.285 859.532 462.1 851.997C455.059 847.974 448.966 837.043 443.812 830.601C437.905 823.217 430.028 816.634 423.329 809.935C415.44 802.046 410.931 791.77 403.579 783.601C393.291 772.17 397.726 798.335 397.726 774.64C397.726 747.714 401.018 722.699 401.018 695.636C401.018 689.05 402.577 659.12 407.419 676.068C410.657 687.4 413.481 698.474 414.186 710.449C415.491 732.635 420.769 760.527 420.769 782.869C420.769 787.843 424.422 799.825 429.913 789.453C432.477 784.61 430.645 775.095 430.645 769.702C430.645 755.459 433.936 742.992 433.936 728.554C433.936 715.509 433.936 702.464 433.936 689.418C433.936 683.679 437.672 700.345 440.52 705.329C443.176 709.977 447.576 713.561 450.395 718.496C460.892 736.865 489.897 753.919 489.897 776.286C489.897 781.989 493.382 787.418 495.749 792.745C498.07 797.967 493.705 807.38 497.212 811.764C500.589 815.985 503.717 844.769 512.209 825.663C521.614 804.501 516.232 772.08 516.232 748.305C516.232 737.599 519.557 720.366 512.94 712.095C509.498 707.793 499.862 711.65 495.018 710.266C490.605 709.006 485.351 699.384 483.314 695.819C478.019 686.553 466.767 674.169 458.625 667.656C449.703 660.518 447.183 649.447 439.789 642.053C428.061 630.325 411.883 605.469 410.894 588.652C410.047 574.266 432.924 579.283 416.746 566.341C408.823 560.003 393.889 555.173 397.909 541.103C399.971 533.888 404.288 542.566 396.08 542.566C389.542 542.566 381.981 537.477 376.33 534.337C368.504 529.989 348.802 516.598 340.302 516.598C340.209 516.598 360.866 571.552 364.077 578.776C385.499 626.976 381.267 662.431 381.267 720.325C381.267 747.261 384.559 772.987 384.559 799.328C384.559 800.069 384.436 807.864 387.119 805.18C388.938 803.362 387.851 797.5 387.851 797.5C387.851 797.5 387.851 809.691 387.851 815.787C387.851 835.883 386.186 835.538 366.454 835.538C352.859 835.538 339.793 838.83 326.952 838.83C315.451 838.83 298.899 839.761 287.45 842.305C285.858 842.659 272.005 849.211 280.867 842.122C282.643 840.701 284.908 829.623 285.622 827.126C289.077 815.031 289.096 802.72 289.096 789.453C289.096 772.728 291.594 755.882 306.287 737.515C319.987 720.39 341.765 699.902 341.765 675.885C341.765 662.333 345.762 652.839 341.948 639.492C338.942 628.969 332.679 617.065 326.952 606.757C323.621 600.761 311.223 582.977 312.322 586.823C314.85 595.671 332.299 608.403 312.139 608.403C306.856 608.403 279.889 609.198 276.661 612.426C273.254 615.833 292.401 629.925 294.949 634.737C307.547 658.534 315.431 673.332 315.431 702.22C315.431 751.828 277.81 779.525 245.571 811.764C242.948 814.387 230.133 834.364 223.992 828.223C216.942 821.173 226.552 797.28 226.552 789.453C226.552 772.235 204.604 743.367 185.404 743.367C159.432 743.367 135.048 748.248 108.046 746.659C99.1071 746.133 108.046 718.73 108.046 713.741C108.046 706.973 111.338 703.494 111.338 697.282C111.338 693.99 111.338 690.698 111.338 687.406C111.338 682.851 110.61 690.333 112.984 690.333C113.045 690.333 117.922 525.444 117.922 509.648C117.922 483.416 117.922 468.436 117.922 437.228C117.922 413.432 124.245 379.531 117.739 356.762C113.924 343.411 91.5362 313.026 101.463 300.618C106.125 294.79 131.089 291.058 131.089 300.618C131.089 314.085 134.381 326.253 134.381 338.474C134.381 364.808 134.381 391.143 134.381 417.477C134.381 440.771 124.37 470.496 131.272 494.652C137.491 516.419 137.673 543.661 137.673 567.255C137.673 573.051 144.256 589.144 144.256 583.348C144.256 576.934 140.965 574.035 140.965 567.621C140.965 553.851 135.19 594.657 134.381 608.403C132.845 634.512 127.797 658.157 127.797 684.115C127.797 697.282 127.797 710.449 127.797 723.616C127.797 727.11 125.546 738.775 130.358 732.76C132.379 730.234 139.822 725.148 140.782 721.788C142.077 717.254 132.524 694.897 130.906 689.235C127.694 677.992 111.805 671.531 104.755 662.718C95.5479 651.21 79.2424 642.943 71.8364 629.983C64.5723 617.27 58.3264 603.372 51.3539 588.652C47.1442 579.765 39.4508 561.496 38.9182 552.442C38.0241 537.242 29.1538 525.784 25.9338 511.294C19.664 483.08 6 460.47 6 430.645C6 353.086 15.6675 300.663 50.4396 238.073C62.3786 216.583 84.9159 201.506 99.9997 182.112C118.638 158.149 141.98 141.778 163.276 120.482C180.895 102.863 210.972 85.6054 233.135 72.5679C254.303 60.1167 279.148 54.4397 303.727 45.5018C329.864 35.9973 356.736 32.9949 382.73 25.568C387.869 24.0998 393.528 20.6489 399.372 19.3502C406.38 17.7928 407.46 9.29182 412.357 9.29182C443.983 9.29182 473.455 6 505.076 6C543.359 6 581.642 6 619.924 6C633.091 6 646.259 6 659.426 6C671.877 6 683.761 12.5836 697.282 12.5836C724.359 12.5836 742.441 35.8892 769.702 38.9182C792.418 41.4422 819.077 59.034 840.476 68.5446C853.712 74.4272 863.364 82.7654 875.406 90.1243C898.506 104.241 924.542 116.373 945.814 132.918C965.544 148.263 981.362 169.745 999.398 187.782C1024.66 213.045 1036.26 223.808 1039.45 234.964C1044.78 253.614 1056.41 281.27 1068.53 296.412C1092.97 326.969 1062.42 323.08 1076.57 354.933C1081.04 364.995 1085.1 380.734 1085.72 391.143C1086.35 401.987 1085.72 415.018 1085.72 425.707C1085.72 450.834 1067.66 474.882 1062.49 498.127C1059.98 509.444 1046.17 517.227 1043.11 527.936C1040.95 535.47 1033.94 552.143 1029.02 558.294C1021.9 567.2 1022.88 582.439 1015.86 591.212C1009.48 599.186 1005.11 608.173 997.569 615.718C993.064 620.223 977.869 635.06 977.086 641.321C976.3 647.612 971.77 648.951 967.943 651.928C965.263 654.012 965.154 625.068 963.736 620.107C957.872 599.583 964.56 575.712 970.686 554.271C974.954 539.331 977.086 518.047 977.086 501.602C977.086 487.777 982.899 474.158 983.67 460.271C985.187 432.965 990.254 406.265 990.254 377.976C990.254 353.307 990.254 326.621 990.254 303.178C990.254 272.495 993.546 241.505 993.546 211.739C993.546 185.235 1003.42 161.537 1003.42 134.381C1003.42 111.108 1003.42 86.269 1003.42 61.9609C1003.42 40.3394 1012.02 51.6857 1020.61 61.2294C1025.65 66.8262 1033.05 83.9819 1033.05 80.0659C1033.05 50.8039 1017.09 47.2163 997.569 31.603C983.531 20.3727 937.585 32.4743 937.585 53.7314C937.585 66.8546 921.864 73.6615 942.339 61.9609C950.396 57.3574 962.154 45.5018 972.149 45.5018C990.908 45.5018 986.962 53.4489 986.962 70.1905C986.962 81.8576 980.378 95.0236 980.378 108.046C980.378 120.982 973.795 131.959 973.795 144.256C973.795 155.433 973.795 168.695 973.795 178.638C973.795 194.502 970.503 210.345 970.503 226.552C970.503 237.958 963.919 250.241 963.919 261.116C963.919 272.167 960.032 286.016 957.518 297.326C954.62 310.369 957.336 326.699 957.336 340.12C957.336 353.165 957.336 366.21 957.336 379.256C957.336 383.401 957.336 362.675 957.336 366.82C957.336 372.89 959.094 382.249 956.604 387.851C952.006 398.198 950.752 419.125 950.752 430.645C950.752 442.426 947.46 453.879 947.46 466.855C947.46 495.278 940.876 519.438 940.876 547.504C940.876 559.301 947.595 570.899 943.985 583.531C941.226 593.189 937.585 623.019 937.585 612.975C937.585 609.183 936.229 589.018 939.231 589.018C942.268 589.018 940.876 610.338 940.876 613.341C940.876 619.924 940.876 626.508 940.876 633.091C940.876 639.628 934.293 638.673 934.293 647.905C934.293 655.996 926.085 670.476 920.394 676.8C913.172 684.824 913.146 700.422 908.69 710.449C905.084 718.562 904.676 742.043 920.394 729.469C924.156 726.459 934.027 726.908 924.417 726.908C921.035 726.908 905.924 724.977 904.849 728.737C901.344 741.004 886.93 730.2 876.686 730.2C863.519 730.2 850.351 730.2 837.184 730.2C817.275 730.2 805.912 768.075 805.912 782.869C805.912 788.343 803.243 819.079 809.204 819.079C822.29 819.079 833.229 813.465 828.772 797.865C825.99 788.128 819.079 778.841 819.079 768.056C819.079 761.238 813.869 755.844 815.97 748.488C817.573 742.878 821.99 739.973 822.371 733.492C822.594 729.709 836.46 704.501 825.663 703.866C813.443 703.147 802.501 707.157 789.453 707.157C777.431 707.157 767.992 697.015 773.725 684.115C777.514 675.59 780.411 674.239 789.453 674.239C800.885 674.239 796.415 674.239 787.807 674.239C773.546 674.239 713.974 687.539 741.904 659.609C752.429 649.084 755.606 636.545 763.118 623.399C765.534 619.171 767.335 611.613 771.348 608.403C773.327 606.82 787.641 596.796 778.846 599.259C758.857 604.856 744.108 635.826 729.469 650.465C713.086 666.848 705.931 694.308 693.99 715.204C685.282 730.443 674.239 700.954 674.239 695.636C674.239 682.305 677.531 668.528 677.531 656.134C677.531 646.881 680.904 625.374 685.761 616.632C689.547 609.817 696.845 586.634 697.282 578.776C697.936 566.997 712.278 558.945 712.278 549.882C712.278 537.66 700.187 571.137 694.722 582.068C691.156 589.2 677.531 617.064 677.531 595.236C677.531 578.461 687.406 565.761 687.406 550.796C687.406 542.979 677.718 546.826 674.239 540.738C673.285 539.068 666.951 526.473 666.01 526.473C655.799 526.473 676.329 567.378 655.951 555.734C644.444 549.158 632.161 533.131 619.741 529.582C615.319 528.319 610.169 513.973 611.877 518.244C614.136 523.891 618.119 527.776 622.302 531.959C631.393 541.051 637.775 553.651 647.173 563.049C657.14 573.016 657.78 577.597 657.78 591.944C657.78 599.853 658.626 627.514 642.052 614.255C632.327 606.474 613.006 607.594 600.356 605.294C579.987 601.591 601.517 610.795 606.757 614.986C615.102 621.663 624.862 633.693 624.862 644.613C624.862 659.121 624.862 673.63 624.862 688.138C624.862 695.524 625.296 703.075 624.862 710.449C624.523 716.204 618.278 721.769 618.278 728.554C618.278 743.074 604.802 787.067 593.59 796.037C576.624 809.609 565.68 826.359 545.858 836.27C530.12 844.139 528.237 824.701 535.251 815.056C538.802 810.174 538.857 796.154 541.835 789.453C544.296 783.916 542.216 775.657 542.566 769.702C543.202 758.901 555.091 748.351 555.734 736.784C556.393 724.911 557.334 705.219 567.255 697.282C573.696 692.13 582.829 673.288 588.652 666.01C594.01 659.313 617.912 647.226 617.912 639.675C617.912 617.643 594.054 684.674 572.193 687.406C566.682 688.095 562.508 690.698 555.734 690.698C544.489 690.698 548.8 689.088 545.127 680.823C542.151 674.127 535.37 651.364 531.045 647.905C526.479 644.252 517.73 629.203 512.94 623.216C506.98 615.766 496.941 610.287 492.458 601.819C486 589.622 477.527 579.946 476.73 565.609C476.511 561.671 468.005 533.108 467.586 533.423C466.797 534.014 466.855 514.98 466.855 511.111C466.855 504.04 466.855 496.969 466.855 489.897C466.855 476.484 467.136 463.726 463.746 451.859C458.079 432.026 444.791 412.832 440.337 392.789C438.985 386.703 421.435 379.167 415.831 374.684C402.689 364.17 401.018 362.686 401.018 345.057C401.018 332.725 399.263 320.917 406.87 311.408C410.786 306.513 417.07 285.325 417.477 279.221C417.737 275.328 417.477 290.925 417.477 290.925C417.477 290.925 421.014 280.439 424.792 276.661C430.829 270.624 441.402 263.773 448.932 259.47C470.555 247.114 489.573 236.646 508.917 219.237C523.673 205.956 554.147 200.264 570.547 213.385C581.774 222.367 576.155 272.637 590.298 272.637C602.063 272.637 611.695 257.561 611.695 277.575C611.695 291.377 614.986 302.472 614.986 315.431C614.986 337.538 620.634 367.573 604.379 383.828C591.333 396.874 595.236 379.662 595.236 368.1C595.236 354.811 585.003 345.919 582.251 333.536C581.202 328.814 574.066 300.212 570.364 299.155C563.309 297.139 562.488 310.445 557.197 311.956C551.964 313.451 546.149 315.839 541.103 318.723C521.154 330.122 496.759 349.001 480.022 364.808C474.596 369.933 449.255 382.496 470.146 381.267C476.554 380.89 495.626 372.735 500.504 368.832C506.633 363.929 531.283 368.1 539.275 368.1C545.858 368.1 552.442 368.1 559.026 368.1C568.759 368.1 568.901 365.496 568.901 373.038C568.901 384.179 548.982 384.559 540.92 384.559C522.314 384.559 519.524 383.329 519.524 402.664C519.524 422.983 493.561 431.736 480.753 444.543C478.314 446.983 472.654 456.979 480.022 456.979C484.509 456.979 488.705 450.956 493.189 450.396C504.485 448.984 512.848 443.812 526.107 443.812C538.558 443.812 551.532 446.469 562.317 447.104C579.627 448.122 582.068 439.324 582.068 422.415C582.068 418.597 587.228 391.509 590.298 391.509C598.546 391.509 591.944 407.949 591.944 416.197C591.944 444.568 598.789 458.065 622.302 473.438C645.432 488.562 672.807 502.42 698.745 509.831C713.06 513.921 739.013 536.615 740.076 555.734C741.2 575.982 760.25 598.821 744.099 619.01C738.993 625.393 730.209 636.997 726.177 644.613C720.386 655.551 708.255 670.856 720.325 649.733C725.963 639.866 733.492 627.845 733.492 616.632C733.492 591.089 730.496 611.458 721.971 618.278C704.487 632.265 713.741 697.754 713.741 717.033C713.741 741.425 723.616 767.027 723.616 796.037C723.616 814.735 718.881 821.234 697.282 822.371C680.528 823.253 662.043 835.538 646.259 835.538C628.52 835.538 655.8 803.61 614.986 824.017C592.675 835.173 569.827 843.414 547.321 853.643C507.629 871.685 472.63 875.04 428.084 875.04C387.445 875.04 345.985 878.332 306.287 878.332C288.811 878.332 282.513 888.021 282.513 865.165C282.513 851.752 282.231 838.993 285.622 827.126C288.797 816.011 292.584 812.042 283.976 800.974C279.305 794.969 277.815 788.648 275.746 781.406C274.142 775.79 264.257 772.467 262.945 767.873C259.465 755.694 256.445 750.285 249.595 741.722C243.017 733.5 230.444 728.971 222.528 721.056C213.591 712.118 194.964 718.942 183.758 713.009C174.073 707.882 205.206 696.999 209.361 693.259C214.561 688.579 218.666 681.578 223.992 677.531C230.268 672.761 250.102 661.557 242.279 662.535C235.766 663.349 212.092 694.015 203.509 678.994C194.965 664.042 181.189 658.101 165.653 651.196C141.14 640.302 128.402 620.176 114.63 597.796C107.51 586.226 96.3796 565.946 94.8791 552.442C92.7607 533.376 76.14 516.67 72.0192 498.127C63.2725 458.766 58.6691 417.501 58.6691 376.33C58.6691 356.439 53.9428 331.18 63.6068 313.785C75.6478 292.111 86.6981 266.188 104.023 248.863C113.841 239.046 123.888 229.878 134.381 219.968C152.664 202.701 178.805 194.341 196.925 177.175C202.11 172.263 231.36 142.428 235.696 142.428C237.041 142.428 236.088 149.038 237.159 150.109C240.661 153.611 255.335 148.341 258.739 147.548C269.959 144.935 279.737 137.009 290.742 134.564C309.092 130.486 331.381 116.833 349.629 109.692C368.982 102.12 385.966 95.2019 405.956 89.9414C427.046 84.3914 459.335 88.8652 476.181 72.0193C486.591 61.6095 518.404 71.8364 534.885 71.8364C557.865 71.8364 579.681 77.7492 601.819 78.42C616.171 78.8549 634.635 76.856 647.905 82.4433C664.096 89.2607 686.194 90.6572 703.866 91.5873C720.797 92.4784 735.447 100.983 751.597 104.572C770.535 108.78 788.785 118.086 807.924 121.031C822.169 123.222 840.547 137.673 853.643 137.673C862.892 137.673 881.217 147.688 889.853 152.486C894.951 155.318 892.4 153.161 888.39 154.498C878.126 157.919 899.253 189.127 900.46 191.439C909.883 209.483 918.871 233.693 932.464 249.229C934.309 251.337 937.412 253.244 937.585 256.178C938.495 271.648 966.622 295.113 975.623 308.116C985.73 322.714 991.247 339.213 1000.13 354.201C1001.59 356.67 1007.65 368.356 1005.98 364.808C997.282 346.322 1000.13 366.733 1000.13 377.976C1000.13 403.9 1003.42 429.34 1003.42 455.333C1003.42 463.734 993.173 484.265 988.425 491.726C981.107 503.226 972.299 519.972 967.211 532.691C960.573 549.285 941.806 554.29 934.293 567.438C928.4 577.75 917.371 590.578 908.69 599.259C893.976 613.973 869.19 627.876 858.581 646.442C854.493 653.595 851.997 656.752 851.997 646.259C851.997 637.513 852.448 653.734 851.815 655.951C848.242 668.456 832.323 664.268 826.394 671.679C820.986 678.439 810.075 698.449 809.204 707.157C808.195 717.247 803.187 726.583 802.62 736.784C802.421 740.366 800.696 756.471 798.597 759.095C792.311 766.953 795.741 783.354 801.889 790.184C805.637 794.35 807.672 799.26 811.764 803.352C814.73 806.318 819.079 817.788 819.079 813.593C819.079 786.211 835.538 824.179 835.538 833.892C835.538 842.631 808.223 838.83 800.974 838.83C788.743 838.83 775.297 842.122 764.764 842.122C754.768 842.122 748.389 849.195 740.076 848.706C716.968 847.346 693.614 845.414 670.947 845.414C661.508 845.414 692.887 838.329 693.99 828.955C695.632 814.995 709.02 802.318 710.449 789.453C711.958 775.869 710.959 758.355 713.924 745.013C718.279 725.417 710.056 741.713 698.928 746.659C682.87 753.796 669.583 753.243 651.196 753.243C627.171 753.243 649.38 749.951 661.072 749.951C676.355 749.951 690.705 753.243 705.511 753.243C711.676 753.243 717.033 754.636 717.033 761.838C717.033 784.217 701.75 785.529 683.017 796.768C648.037 817.757 614.828 831.787 576.216 843.585C561.113 848.2 546.45 855.996 531.228 858.764C512.34 862.198 497.216 878.332 476.73 878.332C431.559 878.332 386.981 852.358 344.326 839.562C327.981 834.658 305.421 832.247 288.365 832.247C268.91 832.247 271.667 819.111 272.637 802.62C273.15 793.902 284.052 771.07 289.828 763.85C298.837 752.588 307.05 769.702 317.077 769.702C331.088 769.702 345.057 774.983 345.057 758.181C345.057 752.772 352.729 729.988 356.579 726.908C363.672 721.233 360.867 695.44 358.042 705.329C354.936 716.2 357.745 697.681 358.042 695.453C360.335 678.25 358.225 659.432 358.225 642.053C358.225 632.69 351.553 615.639 344.326 609.134C343.154 608.08 330.639 604.533 332.622 602.551C335.26 599.912 346.21 599.186 349.995 598.345C363.404 595.365 371.392 591.877 371.392 577.131C371.392 566.611 368.1 598.241 368.1 605.111" stroke="#B05CD6" stroke-width="11.6285" stroke-linecap="round"/>
</svg>
