<svg width="2500" height="2500" viewBox="0 0 2500 2500" fill="none" xmlns="http://www.w3.org/2000/svg">
<g clip-path="url(#clip0)">
<path fill-rule="evenodd" clip-rule="evenodd" d="M851.345 1377.06C1073.66 1384.04 1328.29 1426.25 1474.4 1258.56C1624.45 1086.36 1569.05 832.138 1520.65 608.921C1471.31 381.343 1421.8 112.998 1206.68 23.8332C997.383 -62.9169 785.934 106.242 592.515 224.219C431.798 322.249 286.697 440.386 229.635 619.785C165.55 821.265 141.338 1057.5 275.496 1220.91C408.267 1382.63 642.206 1370.49 851.345 1377.06Z" fill="#6FCF97" fill-opacity="0.95"/>
<path fill-rule="evenodd" clip-rule="evenodd" d="M2000.41 777.106C1823.67 632.188 1586.13 629.346 1357.58 629.471C1129.2 629.596 894.413 635.95 715.44 777.808C516.165 935.757 339.209 1166.54 360.287 1419.94C374.439 1590.09 507.919 1699.43 643.962 1810.88C703.421 1859.59 763.37 1908.7 814.06 1963.46C869.435 2023.28 917.412 2094.33 965.006 2164.8C1071.55 2322.56 1176.17 2477.48 1357.58 2497.36C1628.55 2527.06 1853.11 2300.4 2034.88 2097.25C2204.83 1907.32 2328.28 1674.72 2321.62 1419.94C2315.12 1171.01 2192.97 934.997 2000.41 777.106ZM1504.89 1206.41C1510.9 1193.67 1505.45 1178.47 1492.71 1172.46C1479.97 1166.44 1464.77 1171.9 1458.76 1184.64C1425.98 1254.1 1378.95 1355.38 1359.62 1397.07L1270.93 1375.48C1255.93 1371.83 1240.25 1377.9 1231.63 1390.71L1180.12 1467.15C1172.24 1478.84 1175.33 1494.69 1187.02 1502.56C1198.7 1510.43 1214.55 1507.34 1222.42 1495.66L1268.43 1427.37L1358.84 1449.38C1375.73 1453.49 1393.49 1445.31 1400.99 1429.12C1415.71 1397.35 1468.93 1282.62 1504.89 1206.41Z" fill="#B05CD6" fill-opacity="0.95"/>
</g>
<defs>
<clipPath id="clip0">
<rect width="2500" height="2500" fill="white"/>
</clipPath>
</defs>
</svg>
