<svg width="2500" height="2500" viewBox="0 0 2500 2500" fill="none" xmlns="http://www.w3.org/2000/svg">
<g clip-path="url(#clip0)">
<path fill-rule="evenodd" clip-rule="evenodd" d="M1614.19 30.8236C1836.97 9.72678 2082.8 -50.0449 2257.23 90.1316C2441.78 238.443 2535.54 501.202 2488.16 733.172C2445.28 943.065 2219.8 1043.01 2039.09 1158.07C1909.07 1240.84 1767.65 1275.27 1614.19 1289.6C1436.75 1306.16 1233.44 1365.69 1101.8 1245.57C968.289 1123.74 1007.75 913.876 1004.4 733.172C1000.94 546.957 960.303 342.024 1082.41 201.387C1209.28 55.2571 1421.53 49.0684 1614.19 30.8236Z" fill="#56CCF2" fill-opacity="0.95"/>
<path fill-rule="evenodd" clip-rule="evenodd" d="M1572.94 1000.49C1421.96 881.065 1241.81 815.757 1049.31 814.959C855.878 814.157 681.781 888.113 521.318 996.129C478.989 1024.62 432.611 1052.4 385.488 1080.62C194.224 1195.17 -9.30725 1317.07 -4.18152 1524.12C0.0648507 1695.64 157.161 1784.44 318.319 1875.52C399.877 1921.62 482.475 1968.3 546.829 2026.6C605.038 2079.32 654.637 2143.89 703.606 2207.63C800.628 2333.91 895.174 2456.98 1049.31 2478.39C1298.14 2512.96 1541.9 2371.83 1713.92 2188.73C1880.94 2010.96 1974.6 1766.34 1945.86 1524.12C1919.61 1302.91 1747.65 1138.68 1572.94 1000.49ZM1327.37 1115.95L1344.6 1187.69C1348.71 1204.44 1344.93 1221.68 1334.43 1235.14C1333.54 1236.24 1332.44 1237.27 1331.37 1238.27C1330.84 1238.76 1330.32 1239.25 1329.83 1239.74V1353.67C1329.83 1371.72 1315.05 1386.5 1297 1386.5H1067.16C1049.1 1386.5 1034.33 1371.72 1034.33 1353.67V1239.74C1033.74 1239.08 1033.09 1238.47 1032.45 1237.87C1031.49 1236.96 1030.52 1236.06 1029.73 1234.97C1019.23 1221.51 1015.61 1204.44 1019.55 1187.69L1036.79 1115.95C1040.24 1101.34 1053.21 1091 1067.98 1091H1296.01C1310.95 1091 1323.75 1101.18 1327.37 1115.95ZM1312.76 1195.41L1295.52 1123.67L1263.83 1123.83L1273.36 1203.62C1274.5 1214.29 1283.21 1222.33 1293.22 1222.33C1301.43 1222.33 1306.35 1217.57 1308.65 1214.62C1312.92 1209.2 1314.4 1202.31 1312.76 1195.41ZM1230.67 1123.83H1198.5V1200.83C1198.5 1212.65 1207.52 1222.33 1218.52 1222.33C1225.25 1222.33 1230.51 1219.87 1234.12 1215.6C1238.39 1210.84 1240.36 1204.44 1239.54 1198.04L1230.67 1123.83ZM1133.49 1123.83L1124.46 1198.04C1123.8 1204.44 1125.77 1210.84 1129.87 1215.6C1133.81 1219.87 1138.9 1222.33 1144.48 1222.33C1156.63 1222.33 1165.66 1212.65 1165.66 1200.83V1123.83H1133.49ZM1067.98 1123.83L1051.4 1195.41C1049.76 1202.31 1051.24 1209.36 1055.67 1214.62C1057.8 1217.57 1062.89 1222.33 1070.94 1222.33C1080.95 1222.33 1089.49 1214.29 1090.8 1203.62L1100.32 1123.83H1067.98ZM1067.16 1254.67V1353.67H1297.16V1254.67C1296.7 1254.73 1296.26 1254.81 1295.82 1254.89C1295.02 1255.03 1294.24 1255.17 1293.38 1255.17C1279.1 1255.17 1266.13 1249.26 1256.61 1239.57C1246.76 1249.42 1233.63 1255.17 1219.84 1255.17C1205.06 1255.17 1191.93 1249.26 1182.24 1239.9C1172.72 1249.26 1159.92 1255.17 1145.63 1255.17C1130.69 1255.17 1117.56 1249.42 1107.71 1239.57C1098.19 1249.26 1085.22 1255.17 1070.94 1255.17C1070.09 1255.17 1069.3 1255.03 1068.5 1254.89C1068.06 1254.81 1067.62 1254.73 1067.16 1254.67Z" fill="#FF9F40" fill-opacity="0.95"/>
</g>
<defs>
<clipPath id="clip0">
<rect width="2500" height="2500" fill="white"/>
</clipPath>
</defs>
</svg>
