<svg width="2000" height="2000" viewBox="0 0 2000 2000" fill="none" xmlns="http://www.w3.org/2000/svg">
<path fill-rule="evenodd" clip-rule="evenodd" d="M2000 1000C2000 1552.28 1552.28 2000 1000 2000C447.715 2000 0 1552.28 0 1000C0 447.715 447.715 0 1000 0C1552.28 0 2000 447.715 2000 1000ZM1520.47 853.802C1601.17 853.802 1666.67 919.299 1666.67 1000C1666.67 1059.65 1630.41 1111.11 1582.46 1134.5C1584.8 1148.54 1585.96 1162.57 1585.96 1177.78C1585.96 1402.34 1325.15 1583.63 1002.34 1583.63C679.532 1583.63 418.713 1402.34 418.713 1177.78C418.713 1162.57 419.883 1147.37 422.222 1133.33C370.76 1109.94 335.672 1059.65 335.672 1000C335.672 919.299 401.169 853.802 481.871 853.802C520.468 853.802 556.725 870.176 582.456 894.737C683.041 821.053 822.222 775.439 977.778 770.761L1051.46 422.223C1053.8 415.205 1057.31 409.357 1063.16 405.849C1069.01 402.34 1076.02 401.17 1083.04 402.34L1325.15 453.802C1341.52 418.714 1376.61 395.322 1417.54 395.322C1474.85 395.322 1521.64 442.106 1521.64 499.416C1521.64 556.726 1474.85 603.509 1417.54 603.509C1361.4 603.509 1315.79 559.065 1313.45 504.094L1097.08 458.48L1030.41 770.761C1182.46 776.609 1320.47 823.392 1419.88 894.737C1445.61 869.006 1480.7 853.802 1520.47 853.802ZM770.76 1000C713.45 1000 666.666 1046.78 666.666 1104.09C666.666 1161.4 713.45 1208.19 770.76 1208.19C828.07 1208.19 874.854 1161.4 874.854 1104.09C874.854 1046.78 828.07 1000 770.76 1000ZM1001.17 1454.97C1040.94 1454.97 1176.61 1450.29 1247.95 1378.95C1258.48 1368.42 1258.48 1352.05 1250.29 1340.35C1239.77 1329.83 1222.22 1329.83 1211.7 1340.35C1166.08 1384.8 1071.34 1401.17 1002.34 1401.17C933.333 1401.17 837.427 1384.8 792.982 1340.35C782.456 1329.83 764.912 1329.83 754.386 1340.35C743.859 1350.88 743.859 1368.42 754.386 1378.95C824.561 1449.12 961.403 1454.97 1001.17 1454.97ZM1125.15 1104.09C1125.15 1161.4 1171.93 1208.19 1229.24 1208.19C1286.55 1208.19 1333.33 1161.4 1333.33 1104.09C1333.33 1046.78 1286.55 1000 1229.24 1000C1171.93 1000 1125.15 1046.78 1125.15 1104.09Z" fill="#FF4500"/>
</svg>
