<svg width="1250" height="1250" viewBox="0 0 1250 1250" fill="none" xmlns="http://www.w3.org/2000/svg">
<mask id="path-1-inside-1" fill="white">
<path fill-rule="evenodd" clip-rule="evenodd" d="M625 1250C970.178 1250 1250 970.178 1250 625C1250 279.822 970.178 0 625 0C279.822 0 0 279.822 0 625C0 970.178 279.822 1250 625 1250ZM655.334 266.667C800.4 266.667 882.534 350.933 882.534 478.933C882.534 578.133 832.4 652.8 742.8 679.467L949.734 1013.33H795.067L594.534 691.2H522L743.867 478.933L519.334 266.667H655.334ZM519.334 266.667V394.667H383.334V266.667H519.334ZM522 691.2V1013.33H383.334V563.2H522V691.2Z"/>
</mask>
<path fill-rule="evenodd" clip-rule="evenodd" d="M625 1250C970.178 1250 1250 970.178 1250 625C1250 279.822 970.178 0 625 0C279.822 0 0 279.822 0 625C0 970.178 279.822 1250 625 1250ZM655.334 266.667C800.4 266.667 882.534 350.933 882.534 478.933C882.534 578.133 832.4 652.8 742.8 679.467L949.734 1013.33H795.067L594.534 691.2H522L743.867 478.933L519.334 266.667H655.334ZM519.334 266.667V394.667H383.334V266.667H519.334ZM522 691.2V1013.33H383.334V563.2H522V691.2Z" fill="#B05CD6"/>
<path d="M742.8 679.467L714.275 583.621L588.876 620.942L657.803 732.149L742.8 679.467ZM949.734 1013.33V1113.33H1129.36L1034.73 960.651L949.734 1013.33ZM795.067 1013.33L710.172 1066.18L739.525 1113.33H795.067V1013.33ZM594.534 691.2L679.428 638.352L650.075 591.2H594.534V691.2ZM743.867 478.933L812.997 551.19L888.974 478.5L812.565 406.265L743.867 478.933ZM519.334 394.667V494.667H619.334V394.667H519.334ZM383.334 394.667H283.334V494.667H383.334V394.667ZM383.334 266.667V166.667H283.334V266.667H383.334ZM522 1013.33V1113.33H622V1013.33H522ZM383.334 1013.33H283.334V1113.33H383.334V1013.33ZM383.334 563.2V463.2H283.334V563.2H383.334ZM522 563.2H622V463.2H522V563.2ZM1150 625C1150 914.95 914.95 1150 625 1150V1350C1025.41 1350 1350 1025.41 1350 625H1150ZM625 100C914.95 100 1150 335.05 1150 625H1350C1350 224.594 1025.41 -100 625 -100V100ZM100 625C100 335.05 335.05 100 625 100V-100C224.594 -100 -100 224.594 -100 625H100ZM625 1150C335.05 1150 100 914.95 100 625H-100C-100 1025.41 224.594 1350 625 1350V1150ZM982.533 478.933C982.533 393.103 954.475 311.989 892.535 252.611C830.993 193.616 747.086 166.667 655.334 166.667V366.667C708.648 366.667 738.341 381.851 754.132 396.988C769.525 411.744 782.534 436.763 782.534 478.933H982.533ZM771.326 775.312C909.054 734.321 982.533 616.099 982.533 478.933H782.534C782.534 540.168 755.746 571.279 714.275 583.621L771.326 775.312ZM1034.73 960.651L827.798 626.784L657.803 732.149L864.736 1066.02L1034.73 960.651ZM795.067 1113.33H949.734V913.333H795.067V1113.33ZM509.639 744.048L710.172 1066.18L879.961 960.485L679.428 638.352L509.639 744.048ZM522 791.2H594.534V591.2H522V791.2ZM674.737 406.677L452.87 618.943L591.13 763.457L812.997 551.19L674.737 406.677ZM450.636 339.334L675.169 551.601L812.565 406.265L588.031 193.999L450.636 339.334ZM655.334 166.667H519.334V366.667H655.334V166.667ZM619.334 394.667V266.667H419.334V394.667H619.334ZM383.334 494.667H519.334V294.667H383.334V494.667ZM283.334 266.667V394.667H483.334V266.667H283.334ZM519.334 166.667H383.334V366.667H519.334V166.667ZM622 1013.33V691.2H422V1013.33H622ZM383.334 1113.33H522V913.333H383.334V1113.33ZM283.334 563.2V1013.33H483.334V563.2H283.334ZM522 463.2H383.334V663.2H522V463.2ZM622 691.2V563.2H422V691.2H622Z" fill="black" mask="url(#path-1-inside-1)"/>
</svg>
