<svg width="750" height="750" viewBox="0 0 750 750" fill="none" xmlns="http://www.w3.org/2000/svg">
<mask id="path-1-inside-1" fill="white">
<path fill-rule="evenodd" clip-rule="evenodd" d="M375 750C582.107 750 750 582.107 750 375C750 167.893 582.107 0 375 0C167.893 0 0 167.893 0 375C0 582.107 167.893 750 375 750ZM393.2 160C480.24 160 529.52 210.56 529.52 287.36C529.52 346.88 499.44 391.68 445.68 407.68L569.84 608H477.04L356.72 414.72H313.2L446.32 287.36L311.6 160H393.2ZM311.6 160V236.8H230V160H311.6ZM313.2 414.72V608H230V337.92H313.2V414.72Z"/>
</mask>
<path fill-rule="evenodd" clip-rule="evenodd" d="M375 750C582.107 750 750 582.107 750 375C750 167.893 582.107 0 375 0C167.893 0 0 167.893 0 375C0 582.107 167.893 750 375 750ZM393.2 160C480.24 160 529.52 210.56 529.52 287.36C529.52 346.88 499.44 391.68 445.68 407.68L569.84 608H477.04L356.72 414.72H313.2L446.32 287.36L311.6 160H393.2ZM311.6 160V236.8H230V160H311.6ZM313.2 414.72V608H230V337.92H313.2V414.72Z" fill="#56CCF2"/>
<path d="M445.68 407.68L428.565 350.173L353.326 372.566L394.682 439.289L445.68 407.68ZM569.84 608V668H677.619L620.839 576.391L569.84 608ZM477.04 608L426.103 639.709L443.715 668H477.04V608ZM356.72 414.72L407.657 383.011L390.045 354.72H356.72V414.72ZM446.32 287.36L487.798 330.714L533.384 287.1L487.539 243.759L446.32 287.36ZM311.6 236.8V296.8H371.6V236.8H311.6ZM230 236.8H170V296.8H230V236.8ZM230 160V100H170V160H230ZM313.2 608V668H373.2V608H313.2ZM230 608H170V668H230V608ZM230 337.92V277.92H170V337.92H230ZM313.2 337.92H373.2V277.92H313.2V337.92ZM690 375C690 548.97 548.97 690 375 690V810C615.244 810 810 615.244 810 375H690ZM375 60C548.97 60 690 201.03 690 375H810C810 134.756 615.244 -60 375 -60V60ZM60 375C60 201.03 201.03 60 375 60V-60C134.756 -60 -60 134.756 -60 375H60ZM375 690C201.03 690 60 548.97 60 375H-60C-60 615.244 134.756 810 375 810V690ZM589.52 287.36C589.52 235.862 572.685 187.194 535.521 151.567C498.596 116.17 448.251 100 393.2 100V220C425.189 220 443.005 229.111 452.479 238.193C461.715 247.047 469.52 262.058 469.52 287.36H589.52ZM462.795 465.187C545.433 440.593 589.52 369.659 589.52 287.36H469.52C469.52 324.101 453.448 342.767 428.565 350.173L462.795 465.187ZM620.839 576.391L496.679 376.071L394.682 439.289L518.842 639.609L620.839 576.391ZM477.04 668H569.84V548H477.04V668ZM305.783 446.429L426.103 639.709L527.977 576.291L407.657 383.011L305.783 446.429ZM313.2 474.72H356.72V354.72H313.2V474.72ZM404.842 244.006L271.722 371.366L354.678 458.074L487.798 330.714L404.842 244.006ZM270.381 203.601L405.101 330.961L487.539 243.759L352.819 116.399L270.381 203.601ZM393.2 100H311.6V220H393.2V100ZM371.6 236.8V160H251.6V236.8H371.6ZM230 296.8H311.6V176.8H230V296.8ZM170 160V236.8H290V160H170ZM311.6 100H230V220H311.6V100ZM373.2 608V414.72H253.2V608H373.2ZM230 668H313.2V548H230V668ZM170 337.92V608H290V337.92H170ZM313.2 277.92H230V397.92H313.2V277.92ZM373.2 414.72V337.92H253.2V414.72H373.2Z" fill="black" mask="url(#path-1-inside-1)"/>
</svg>
