<svg width="100" height="25" viewBox="0 0 100 25" fill="none" xmlns="http://www.w3.org/2000/svg">
<path d="M9.40046 9.85255C9.40046 7.44218 7.8538 5.85535 5.12204 5.85535H0V11.4394V19.9159H2.61124V13.8498H3.97712L7.75337 19.9159H10.6659L6.76913 13.6288C8.45639 13.1266 9.40046 11.7206 9.40046 9.85255ZM2.61124 11.4394H0V8.26572H2.56102V5.85535L6.78922 9.85255L2.61124 13.8498V11.4394Z" fill="#333333"/>
<path d="M12.1794 5.93948V20H14.7906V5.93948H12.1794ZM28.1596 20V12.9095H23.0174V15.0788H25.6287C25.4479 16.525 24.3833 17.7503 22.4751 17.7503C20.125 17.7503 18.498 16.1836 18.498 12.9697C18.498 9.83626 20.1451 8.18917 22.5354 8.18917C24.1222 8.18917 25.2671 9.07297 25.9902 10.8406L28.3805 10.2179C27.6373 7.5464 25.5684 5.77879 22.5354 5.77879C20.6673 5.77879 19.1006 6.40147 17.795 7.66692C16.4893 8.93237 15.8466 10.7 15.8466 12.9697C15.8466 15.2395 16.4692 17.0071 17.7347 18.2726C19.0001 19.538 20.5267 20.1607 22.3345 20.1607C23.8811 20.1607 25.006 19.5983 25.7492 18.4935L25.9701 20H28.1596ZM32.105 20V13.6929H37.7292V20H40.3404V5.93948H37.7292V11.2825H32.105V5.93948H29.4937V20H32.105ZM45.0954 8.34986V20H47.7067V8.34986H51.6034V5.93948H41.1986V8.34986H45.0954ZM54.7606 6.54208C52.8122 7.52631 51.4263 9.83626 51.4263 12.9697C51.4263 14.5365 51.7276 15.8823 52.3502 16.987C53.6157 19.2166 55.6243 20.1607 58.0548 20.1607C59.2801 20.1607 60.3647 19.9197 61.349 19.4175C63.2974 18.3931 64.6833 16.1032 64.6833 12.9697C64.6833 11.403 64.3619 10.0572 63.7393 8.95245C62.514 6.72286 60.4852 5.77879 58.0548 5.77879C56.8295 5.77879 55.7448 6.03992 54.7606 6.54208ZM60.887 9.39436C61.6503 10.1978 62.0319 11.3829 62.0319 12.9697C62.0319 14.5566 61.6503 15.7417 60.887 16.5451C60.1438 17.3486 59.1997 17.7503 58.0548 17.7503C56.9099 17.7503 55.9658 17.3486 55.2025 16.5451C54.4593 15.7417 54.0777 14.5566 54.0777 12.9697C54.0777 11.3829 54.4593 10.1978 55.2025 9.39436C55.9658 8.5909 56.9099 8.18917 58.0548 8.18917C59.1997 8.18917 60.1438 8.5909 60.887 9.39436ZM65.7451 20H68.3563V13.2911L73.4583 20H76.7725L70.6663 12.2265L76.3708 5.93948H73.157L68.3563 11.162V5.93948H65.7451V20ZM77.447 20H86.3453V17.5896H80.0582V13.7129H84.9392V11.3026H80.0582V8.34986H86.1444V5.93948H77.447V20ZM95.2073 15.2194L90.0451 5.93948H87.2933V20H89.9045V10.7201L95.0667 20H97.8186V5.93948H95.2073V15.2194Z" fill="#333333"/>
</svg>
