<svg width="2000" height="2000" viewBox="0 0 2000 2000" fill="none" xmlns="http://www.w3.org/2000/svg">
<path fill-rule="evenodd" clip-rule="evenodd" d="M2000 1000C2000 1552.28 1552.28 2000 1000 2000C447.715 2000 0 1552.28 0 1000C0 447.715 447.715 0 1000 0C1552.28 0 2000 447.715 2000 1000ZM1503 841.5C1503 1160 1260.5 1527.5 817 1527.5C681 1527.5 554 1487.5 448.5 1418.5C467.5 1421 486.5 1422 506 1422C619 1422 723 1383.5 805.5 1319C700 1317 611 1247.5 580.5 1151.5C595.5 1154.5 610.5 1156 626 1156C648 1156 669.5 1153 689.5 1147.5C579 1125 496 1028 496 911V908C528.5 926 565.5 937 605 938C540 895 497.5 821 497.5 737.5C497.5 693.5 509.5 652 530 616.5C649 762.5 826.5 858.5 1027 868.5C1022.5 851 1020.5 832.5 1020.5 813.5C1020.5 680.5 1128.5 572.5 1261.5 572.5C1331 572.5 1393.5 601.5 1437.5 648.5C1492.5 637.5 1544 617.5 1590.5 590C1572.5 646.5 1534.5 693.5 1484.5 723.5C1533.5 717.5 1580 704.5 1623 685.5C1590.5 734 1549.5 776.5 1502.5 810.5C1503 820.5 1503 831 1503 841.5Z" fill="#1B9DF0"/>
</svg>
